<?xml version="1.0" ?><!DOCTYPE svg  PUBLIC '-//W3C//DTD SVG 1.1//EN'  'http://www.w3.org/Graphics/SVG/1.1/DTD/svg11.dtd'><svg height="512px" style="enable-background:new 0 0 512 512;" version="1.1" viewBox="0 0 512 512" width="512px" xml:space="preserve" xmlns="http://www.w3.org/2000/svg" xmlns:xlink="http://www.w3.org/1999/xlink"><g id="_x34_2_x2C__Alpine_x2C__Arctic_x2C__Canada_x2C__Pine_Trees_x2C__Scandinavia"><g><path d="M145.08,223h9.325c0.033,0,0.063,0.022,0.097,0.022c0.182,0.003,0.363,0.035,0.546,0.059    c0.094,0.013,0.187,0.019,0.28,0.037c0.034,0.006,0.068,0.007,0.102,0.014c0.269,0.056,0.534,0.134,0.795,0.236    c18.534,7.239,37.507,7.235,56.389-0.011c0.256-0.098,0.515-0.174,0.776-0.228c0.021-0.004,0.042-0.005,0.062-0.009    c0.018-0.003,0.035-0.005,0.052-0.008c0.098-0.018,0.194-0.028,0.292-0.04c0.174-0.021,0.346-0.047,0.519-0.05    c0.031,0,0.061-0.022,0.092-0.022h9.324l-39.324-47.19L145.08,223z"/><path d="M212.47,234.034c-0.467,0.158-0.934,0.298-1.4,0.449c-0.797,0.256-1.593,0.511-2.389,0.745    c-0.523,0.153-1.047,0.292-1.569,0.436c-0.742,0.204-1.485,0.403-2.228,0.587c-0.543,0.135-1.087,0.26-1.63,0.383    c-0.726,0.166-1.452,0.323-2.178,0.47c-0.548,0.111-1.097,0.217-1.645,0.316c-0.729,0.133-1.456,0.253-2.185,0.367    c-0.539,0.084-1.079,0.168-1.618,0.242c-0.751,0.103-1.501,0.188-2.252,0.27c-0.515,0.056-1.028,0.118-1.543,0.165    c-0.82,0.075-1.641,0.126-2.461,0.177c-0.441,0.027-0.883,0.065-1.323,0.085c-1.237,0.057-2.474,0.088-3.709,0.089    c-0.022,0-0.045,0.001-0.067,0.001c-0.121,0-0.242-0.008-0.362-0.009c-1.132-0.005-2.264-0.03-3.395-0.082    c-0.445-0.02-0.891-0.058-1.336-0.085c-0.815-0.05-1.631-0.103-2.446-0.177c-0.505-0.046-1.01-0.107-1.514-0.162    c-0.758-0.083-1.515-0.17-2.271-0.274c-0.523-0.072-1.047-0.154-1.57-0.236c-0.741-0.116-1.481-0.24-2.222-0.375    c-0.525-0.097-1.05-0.198-1.575-0.305c-0.745-0.151-1.489-0.315-2.233-0.486c-0.514-0.119-1.026-0.237-1.539-0.365    c-0.771-0.192-1.541-0.402-2.312-0.617c-0.481-0.134-0.963-0.264-1.443-0.406c-0.85-0.252-1.697-0.528-2.546-0.806    c-0.398-0.131-0.797-0.254-1.195-0.391c-0.085-0.029-0.17-0.061-0.255-0.09L124.809,273h19.514c0.006,0,0.013,0,0.019,0h0.064    c0.043,0,0.084,0.012,0.127,0.012c0.213,0.006,0.426,0.023,0.639,0.056c0.063,0.01,0.126-0.01,0.189,0.003    c0.048,0.009,0.093-0.03,0.14-0.02c0.264,0.059,0.525,0.026,0.781,0.13c0.022,0.01,0.046-0.181,0.068-0.181    c0.001,0,0.002,0,0.002,0c28.935,12,49.551,11.912,76.037,0.24c0.011-0.004,0.022,0.202,0.033,0.197    c0.059-0.025,0.12-0.04,0.18-0.063c0.019-0.008,0.038-0.014,0.057-0.021c0.105-0.039,0.21-0.081,0.318-0.114    c0.089-0.026,0.179-0.046,0.269-0.067c0.043-0.011,0.085-0.029,0.128-0.038c0.041-0.009,0.084-0.011,0.125-0.018    c0.063-0.012,0.126-0.029,0.189-0.038c0.166-0.024,0.333-0.035,0.5-0.043c0.061-0.003,0.12-0.02,0.181-0.02    c0.013,0,0.024-0.016,0.037-0.016h0.037c0.001,0,0.003,0,0.005,0h19.555l-31.262-39.065    C212.649,233.965,212.56,234.003,212.47,234.034z"/><path d="M221.227,284.773c-0.063,0.024-0.126,0.052-0.189,0.076c-0.862,0.34-1.72,0.667-2.574,0.983    c-0.241,0.089-0.479,0.171-0.721,0.259c-0.607,0.221-1.215,0.44-1.818,0.649c-0.317,0.109-0.632,0.211-0.947,0.317    c-0.524,0.177-1.05,0.354-1.571,0.521c-0.344,0.109-0.686,0.213-1.027,0.318c-0.492,0.153-0.985,0.306-1.476,0.45    c-0.356,0.104-0.713,0.204-1.069,0.305c-0.472,0.134-0.943,0.267-1.413,0.393c-0.365,0.098-0.729,0.19-1.093,0.283    c-0.461,0.118-0.922,0.234-1.382,0.346c-0.367,0.088-0.734,0.173-1.101,0.257c-0.454,0.104-0.907,0.204-1.359,0.301    c-0.37,0.078-0.739,0.154-1.108,0.229c-0.448,0.09-0.896,0.176-1.344,0.259c-0.371,0.069-0.741,0.136-1.112,0.2    c-0.445,0.076-0.89,0.148-1.334,0.218c-0.371,0.058-0.741,0.116-1.111,0.169c-0.444,0.063-0.889,0.122-1.333,0.179    c-0.369,0.047-0.738,0.094-1.106,0.137c-0.448,0.052-0.896,0.096-1.345,0.141c-0.363,0.035-0.727,0.071-1.09,0.103    c-0.457,0.04-0.914,0.067-1.371,0.1c-0.354,0.025-0.71,0.047-1.064,0.067c-0.479,0.027-0.957,0.034-1.435,0.054    c-0.333,0.013-0.666,0.009-1,0.019c-0.558,0.016-1.115-0.027-1.674-0.021c-0.239,0.002-0.478-0.082-0.717-0.082    c-0.016,0-0.032,0-0.048,0c-0.805,0-1.61,0.08-2.418,0.057c-0.271-0.008-0.543,0.065-0.814,0.055    c-0.545-0.021-1.089-0.039-1.635-0.07c-0.343-0.021-0.687-0.049-1.03-0.072c-0.477-0.032-0.954-0.063-1.433-0.104    c-0.364-0.031-0.73-0.07-1.096-0.106c-0.46-0.045-0.92-0.088-1.382-0.141c-0.377-0.042-0.756-0.092-1.135-0.14    c-0.451-0.057-0.903-0.113-1.357-0.177c-0.386-0.054-0.774-0.114-1.162-0.173c-0.448-0.069-0.897-0.139-1.348-0.214    c-0.394-0.065-0.788-0.136-1.182-0.206c-0.45-0.081-0.901-0.163-1.354-0.251c-0.396-0.076-0.795-0.157-1.193-0.238    c-0.453-0.093-0.907-0.188-1.362-0.288c-0.4-0.088-0.802-0.178-1.204-0.271c-0.46-0.106-0.922-0.217-1.385-0.329    c-0.4-0.098-0.802-0.196-1.204-0.299c-0.468-0.119-0.938-0.244-1.408-0.37c-0.404-0.108-0.809-0.217-1.215-0.33    c-0.476-0.132-0.953-0.271-1.432-0.41c-0.404-0.118-0.809-0.234-1.216-0.357c-0.488-0.147-0.98-0.303-1.472-0.457    c-0.402-0.126-0.804-0.25-1.209-0.382c-0.504-0.163-1.013-0.335-1.521-0.506c-0.397-0.134-0.794-0.264-1.194-0.402    c-0.541-0.187-1.086-0.384-1.631-0.578c-0.372-0.133-0.741-0.262-1.115-0.398c-0.626-0.229-1.259-0.47-1.891-0.709    c-0.302-0.115-0.601-0.224-0.904-0.341c-0.007-0.003-0.014-0.005-0.021-0.008l-58.769,50.498L114.036,337c0.004,0,0.007,0,0.011,0    l0.081-0.115c0.039,0.004,0.073-0.108,0.112-0.104c0.046,0.005,0.091,0.015,0.137,0.021c0.089,0.013,0.177,0.023,0.265,0.041    c0.116,0.023,0.23,0.054,0.345,0.085c0.1,0.027,0.196,0.06,0.293,0.093c0.08,0.027,0.162,0.044,0.241,0.076    c45.218,18.16,90.004,18.739,133.189,1.732c1.394-0.549,2.785-1.116,4.175-1.701c0.041-0.018,0.084-0.025,0.125-0.042    c0.078-0.03,0.157-0.057,0.236-0.084c0.077-0.025,0.154-0.05,0.233-0.071c0.092-0.025,0.183-0.05,0.274-0.069    c0.065-0.015,0.131-0.028,0.196-0.04c0.081-0.015,0.162-0.023,0.244-0.034c0.033-0.004,0.065-0.013,0.098-0.017    c0.023-0.002,0.044-0.011,0.066-0.013l27.841-2.61l-58.686-50.302C222.747,284.165,221.985,284.473,221.227,284.773z"/><path d="M264.021,273c0.011,0,0.022,0,0.033,0h0.059c0.101,0,0.194,0.01,0.294,0.016c0.221,0.014,0.441,0.01,0.662,0.054    c0.207,0.04,0.402,0.06,0.6,0.124c0.106,0.035,0.215-0.056,0.32-0.013c0.023,0.01,0.045-0.181,0.068-0.181    c0.001,0,0.002,0,0.003,0c28.933,12,49.549,11.912,76.036,0.24c0.011-0.004,0.022,0.202,0.033,0.197    c0.059-0.025,0.121-0.041,0.181-0.063c0.211-0.082,0.423-0.15,0.64-0.202c0.044-0.011,0.088-0.029,0.132-0.039    c0.052-0.011,0.106-0.014,0.158-0.022c0.212-0.037,0.425-0.063,0.638-0.073c0.069-0.003,0.138-0.021,0.206-0.021    c0.01,0,0.02-0.016,0.029-0.016h19.597l-31.262-39.065c-0.089,0.03-0.179,0.067-0.268,0.098c-0.472,0.16-0.943,0.302-1.414,0.454    c-0.792,0.255-1.583,0.508-2.375,0.741c-0.526,0.154-1.053,0.294-1.579,0.438c-0.739,0.203-1.479,0.401-2.218,0.584    c-0.545,0.135-1.091,0.26-1.637,0.385c-0.724,0.165-1.447,0.322-2.171,0.468c-0.55,0.111-1.1,0.217-1.649,0.317    c-0.727,0.132-1.452,0.252-2.178,0.365c-0.542,0.084-1.084,0.169-1.626,0.244c-0.747,0.102-1.494,0.187-2.241,0.269    c-0.518,0.057-1.035,0.119-1.553,0.166c-0.816,0.074-1.632,0.126-2.447,0.176c-0.446,0.027-0.892,0.066-1.337,0.086    c-1.219,0.056-2.436,0.086-3.653,0.088c-0.04,0-0.081,0.003-0.121,0.003c-0.134,0-0.268-0.009-0.401-0.01    c-1.118-0.005-2.235-0.03-3.353-0.081c-0.452-0.021-0.904-0.059-1.356-0.087c-0.808-0.05-1.615-0.102-2.423-0.175    c-0.513-0.046-1.024-0.108-1.537-0.164c-0.748-0.083-1.496-0.168-2.244-0.271c-0.533-0.073-1.064-0.156-1.597-0.24    c-0.73-0.114-1.46-0.236-2.189-0.37c-0.536-0.099-1.072-0.202-1.608-0.312c-0.73-0.148-1.46-0.309-2.19-0.477    c-0.527-0.122-1.055-0.243-1.582-0.375c-0.75-0.188-1.499-0.392-2.248-0.6c-0.503-0.14-1.006-0.274-1.509-0.423    c-0.81-0.241-1.618-0.503-2.427-0.768c-0.439-0.144-0.879-0.277-1.317-0.427c-0.077-0.027-0.155-0.049-0.232-0.076l-25.104,31.368    l6.146,7.67H264.021z"/><path d="M83.405,163.025c16.542,0,30-13.458,30-30s-13.458-30-30-30s-30,13.458-30,30S66.863,163.025,83.405,163.025z"/><path d="M274.217,223.023c0.176,0.004,0.351,0.035,0.526,0.057c0.099,0.013,0.196,0.02,0.295,0.038    c0.033,0.006,0.069,0.008,0.104,0.015c0.267,0.056,0.531,0.133,0.791,0.235c18.535,7.239,37.508,7.235,56.389-0.011    c0.254-0.097,0.513-0.173,0.773-0.227c0.029-0.006,0.061-0.007,0.091-0.012c0.007-0.001,0.014-0.003,0.021-0.004    c0.105-0.02,0.21-0.03,0.315-0.043c0.164-0.02,0.328-0.044,0.492-0.047c0.034-0.001,0.065-0.023,0.1-0.023h9.325l-39.325-47.19    L264.788,223h9.325C274.148,223,274.182,223.022,274.217,223.023z"/><path d="M269.898,347.625c0.095,0.02,0.188,0.036,0.282,0.056c1.362,0.276,2.725,0.532,4.086,0.776    c0.454,0.081,0.908,0.161,1.361,0.239c1.149,0.197,2.298,0.381,3.446,0.556c0.774,0.116,1.548,0.227,2.322,0.332    c0.778,0.108,1.556,0.212,2.333,0.309c0.881,0.109,1.763,0.214,2.644,0.309c0.232,0.025,0.465,0.048,0.697,0.072    c20.839,2.167,41.552,0.487,61.948-5.019c0.452-0.122,0.905-0.245,1.357-0.371c0.714-0.199,1.427-0.402,2.141-0.61    c0.656-0.192,1.312-0.391,1.967-0.59c0.564-0.172,1.129-0.34,1.692-0.518c1.198-0.378,2.396-0.769,3.593-1.174    c0.387-0.131,0.772-0.269,1.158-0.402c0.904-0.313,1.808-0.63,2.71-0.957c0.442-0.161,0.886-0.325,1.327-0.489    c0.891-0.33,1.779-0.669,2.667-1.014c0.394-0.153,0.786-0.304,1.179-0.459c1.264-0.501,2.525-1.012,3.784-1.542    c0.097-0.041,0.197-0.063,0.296-0.098c0.1-0.035,0.196-0.071,0.299-0.1c0.091-0.025,0.182-0.049,0.272-0.069    c0.102-0.022,0.202-0.035,0.304-0.051c0.079-0.013,0.157-0.031,0.236-0.04c0.023-0.002,0.044-0.011,0.066-0.013l27.84-2.61    l-58.686-50.302c-0.513,0.213-1.021,0.414-1.53,0.619c-0.332,0.134-0.665,0.273-0.995,0.403c-0.712,0.279-1.418,0.547-2.124,0.811    c-0.158,0.06-0.317,0.123-0.476,0.182c-0.859,0.317-1.716,0.623-2.568,0.917c-0.312,0.107-0.621,0.205-0.932,0.31    c-0.541,0.181-1.082,0.364-1.619,0.536c-0.372,0.119-0.742,0.228-1.112,0.342c-0.475,0.146-0.949,0.294-1.421,0.433    c-0.394,0.115-0.785,0.221-1.177,0.33c-0.447,0.125-0.895,0.254-1.34,0.372c-0.404,0.107-0.808,0.205-1.211,0.308    c-0.431,0.108-0.861,0.22-1.291,0.322c-0.41,0.098-0.819,0.187-1.229,0.278c-0.421,0.095-0.842,0.191-1.262,0.279    c-0.413,0.087-0.825,0.166-1.238,0.247c-0.414,0.081-0.829,0.164-1.242,0.239c-0.417,0.075-0.832,0.144-1.248,0.213    c-0.408,0.068-0.816,0.138-1.224,0.2c-0.42,0.064-0.838,0.121-1.257,0.18c-0.403,0.056-0.808,0.112-1.211,0.162    c-0.421,0.052-0.843,0.099-1.264,0.145c-0.4,0.043-0.801,0.087-1.201,0.125c-0.423,0.04-0.847,0.074-1.271,0.108    c-0.397,0.031-0.795,0.063-1.192,0.089c-0.426,0.028-0.852,0.051-1.277,0.072c-0.396,0.02-0.793,0.039-1.19,0.053    c-0.427,0.016-0.854,0.026-1.281,0.036c-0.396,0.008-0.793,0.015-1.188,0.018c-0.201,0.001-0.401,0.009-0.602,0.009    c-0.229,0-0.458-0.009-0.688-0.01c-0.395-0.004-0.79-0.009-1.187-0.018c-0.43-0.01-0.861-0.022-1.292-0.038    c-0.396-0.015-0.792-0.033-1.189-0.053c-0.433-0.022-0.866-0.047-1.3-0.075c-0.398-0.026-0.797-0.056-1.196-0.088    c-0.434-0.034-0.868-0.07-1.304-0.111c-0.401-0.038-0.803-0.08-1.205-0.123c-0.437-0.047-0.873-0.096-1.311-0.148    c-0.404-0.05-0.809-0.104-1.214-0.158c-0.438-0.06-0.878-0.12-1.318-0.186c-0.406-0.061-0.814-0.127-1.223-0.193    c-0.442-0.071-0.886-0.144-1.33-0.222c-0.41-0.072-0.821-0.151-1.232-0.229c-0.446-0.084-0.892-0.168-1.339-0.259    c-0.416-0.084-0.834-0.175-1.251-0.265c-0.448-0.097-0.896-0.191-1.345-0.295c-0.423-0.096-0.848-0.199-1.272-0.302    c-0.448-0.107-0.897-0.214-1.349-0.328c-0.429-0.108-0.861-0.226-1.293-0.34c-0.452-0.12-0.904-0.237-1.359-0.363    c-0.439-0.122-0.882-0.252-1.323-0.38c-0.45-0.13-0.899-0.258-1.353-0.394c-0.457-0.138-0.918-0.283-1.378-0.427    c-0.444-0.14-0.888-0.274-1.336-0.419c-0.473-0.153-0.95-0.315-1.427-0.475c-0.44-0.148-0.88-0.292-1.323-0.445    c-0.508-0.175-1.021-0.361-1.533-0.543c-0.416-0.148-0.829-0.294-1.248-0.447c-0.581-0.212-1.169-0.439-1.755-0.661    c-0.358-0.135-0.713-0.271-1.073-0.409c-0.643-0.248-1.293-0.781-1.942-0.781h-8.756h-16.483l9.592,8.234l50.146,42.994    c1.524,1.306,2.119,3.397,1.512,5.311s-2.301,3.277-4.299,3.465l-29.475,2.765l1.016,1.093    C267.574,347.123,268.736,347.387,269.898,347.625z"/><path d="M372.661,347.899c-0.695,0.276-1.393,0.542-2.089,0.811c-0.744,0.286-1.487,0.572-2.233,0.849    c-0.695,0.258-1.393,0.507-2.09,0.757c-0.754,0.271-1.508,0.539-2.263,0.799c-0.677,0.233-1.354,0.459-2.032,0.685    c-0.789,0.262-1.578,0.521-2.369,0.772c-0.634,0.201-1.269,0.397-1.903,0.592c-0.851,0.261-1.702,0.517-2.554,0.765    c-0.568,0.166-1.137,0.328-1.706,0.488c-0.944,0.266-1.889,0.522-2.835,0.773c-0.468,0.123-0.937,0.247-1.405,0.367    c-1.083,0.277-2.167,0.544-3.252,0.801c-0.326,0.077-0.651,0.157-0.978,0.232c-1.276,0.295-2.555,0.578-3.833,0.845    c-0.132,0.027-0.263,0.062-0.394,0.088c-11.923,2.467-23.922,3.73-35.918,3.73c-8.625,0-17.359-0.628-26.109-1.902    c-0.111-0.017-0.222,0.01-0.333-0.008c-0.163-0.023-0.327,0.034-0.491,0.009L336.877,423h106.056l-69.703-75.164    C373.04,347.912,372.851,347.824,372.661,347.899z"/><path d="M204.405,423h79.708h39.111l-44.415-47.951l-18.658-20.236c-0.001-0.001-0.002-0.001-0.003-0.002l-6.627-7.132    c-0.195,0.078-0.391,0.149-0.586,0.228c-0.678,0.269-1.356,0.528-2.034,0.789c-0.761,0.293-1.522,0.586-2.284,0.868    c-0.687,0.255-1.373,0.5-2.06,0.746c-0.76,0.272-1.521,0.544-2.281,0.807c-0.679,0.233-1.357,0.459-2.035,0.685    c-0.784,0.261-1.567,0.518-2.353,0.768c-0.642,0.204-1.285,0.403-1.928,0.6c-0.842,0.259-1.684,0.512-2.526,0.757    c-0.572,0.167-1.146,0.33-1.719,0.491c-0.945,0.267-1.891,0.524-2.837,0.774c-0.458,0.121-0.917,0.241-1.376,0.359    c-1.107,0.284-2.217,0.557-3.326,0.819c-0.287,0.067-0.573,0.137-0.86,0.203c-1.343,0.312-2.686,0.606-4.029,0.887    c-0.05,0.01-0.1,0.021-0.148,0.031c-11.972,2.486-24.02,3.751-36.063,3.751c-13.449,0.001-27.084-1.573-40.783-4.673    c-0.255-0.058-0.51-0.117-0.765-0.176c-1.18-0.271-2.359-0.554-3.54-0.849c-0.442-0.109-0.885-0.223-1.327-0.336    c-1.004-0.258-2.007-0.522-3.011-0.797c-0.571-0.156-1.143-0.314-1.714-0.476c-0.892-0.251-1.783-0.509-2.675-0.773    c-0.647-0.191-1.296-0.386-1.943-0.585c-0.832-0.256-1.665-0.517-2.497-0.783c-0.686-0.22-1.371-0.438-2.057-0.666    c-0.813-0.27-1.626-0.543-2.438-0.823c-0.691-0.238-1.383-0.467-2.074-0.713c-0.824-0.293-1.648-0.576-2.473-0.88    c-0.675-0.249-1.349-0.457-2.023-0.715c-0.247-0.094-0.494-0.103-0.741-0.196L45.816,423h118.589H204.405z"/><path d="M402.628,471H319v-38h-30v38h-90v-38h-30v38h-56.373c-2.761,0-5,2.238-5,5s2.239,5,5,5h290.001c2.762,0,5-2.238,5-5    S405.39,471,402.628,471z"/><path d="M432.628,471.025c-1.32,0-2.61,0.53-3.54,1.46c-0.93,0.939-1.46,2.229-1.46,3.54c0,1.31,0.53,2.6,1.46,3.53    c0.93,0.939,2.22,1.47,3.54,1.47c1.31,0,2.6-0.53,3.54-1.47c0.93-0.931,1.46-2.221,1.46-3.53c0-1.32-0.53-2.601-1.46-3.54    C435.228,471.556,433.947,471.025,432.628,471.025z"/><path d="M461.184,73h-30.461c-1.832-11-9.437-19.576-19.681-22.759c-4.922-11.636-16.127-19.268-28.691-19.268    c-12.707,0-24.006,7.938-28.818,19.568c-2.926-1.019-6.011-1.543-9.139-1.543c-15.637,0-28.358,13.021-28.358,29.026    c0,2.761,2.238,5,5,5s5-2.239,5-5c0-10.491,8.235-19.025,18.358-19.025c3.375,0,6.675,0.959,9.543,2.772    c1.393,0.881,3.131,1.019,4.643,0.37c1.514-0.649,2.611-2.002,2.934-3.617c2.028-10.166,10.792-17.545,20.838-17.545    c9.148,0,17.253,6.032,20.168,15.011c0.559,1.72,2.002,3.004,3.774,3.358c8.606,1.723,14.854,9.564,14.854,18.663    c0,2.761,2.238,4.987,5,4.987h35.037c2.762,0,5-2.239,5-5C466.184,75.238,463.945,73,461.184,73z"/><path d="M121.627,53h50c2.762,0,5-2.239,5-5c0-2.762-2.238-5-5-5h-50c-2.761,0-5,2.238-5,5C116.627,50.761,118.866,53,121.627,53z    "/><path d="M136.627,88c0,2.761,2.239,5,5,5h50c2.762,0,5-2.239,5-5c0-2.762-2.238-5-5-5h-50C138.866,83,136.627,85.238,136.627,88z"/></g></g><g id="Layer_1"/></svg>